<svg width="334" height="89" viewBox="0 0 334 89" fill="none" xmlns="http://www.w3.org/2000/svg">
<path d="M310.514 45.315C307.238 45.315 304.193 44.769 301.379 43.677C298.607 42.543 296.171 40.968 294.071 38.952C292.013 36.894 290.417 34.521 289.283 31.833C288.149 29.103 287.582 26.142 287.582 22.95C287.582 19.758 288.149 16.818 289.283 14.13C290.417 11.4 292.013 9.027 294.071 7.011C296.171 4.953 298.607 3.378 301.379 2.286C304.193 1.152 307.238 0.584999 310.514 0.584999C313.79 0.584999 316.814 1.152 319.586 2.286C322.4 3.378 324.836 4.932 326.894 6.948C328.952 8.964 330.548 11.337 331.682 14.067C332.858 16.755 333.446 19.716 333.446 22.95C333.446 26.184 332.858 29.166 331.682 31.896C330.548 34.584 328.952 36.936 326.894 38.952C324.836 40.968 322.4 42.543 319.586 43.677C316.814 44.769 313.79 45.315 310.514 45.315ZM310.514 42.354C313.328 42.354 315.932 41.871 318.326 40.905C320.72 39.939 322.799 38.574 324.563 36.81C326.327 35.046 327.692 32.988 328.658 30.636C329.666 28.284 330.17 25.722 330.17 22.95C330.17 20.136 329.666 17.574 328.658 15.264C327.692 12.912 326.327 10.854 324.563 9.09C322.799 7.326 320.72 5.961 318.326 4.995C315.932 4.029 313.328 3.546 310.514 3.546C307.7 3.546 305.096 4.029 302.702 4.995C300.308 5.961 298.208 7.326 296.402 9.09C294.638 10.854 293.252 12.912 292.244 15.264C291.278 17.574 290.795 20.136 290.795 22.95C290.795 25.722 291.278 28.284 292.244 30.636C293.252 32.988 294.638 35.046 296.402 36.81C298.208 38.574 300.308 39.939 302.702 40.905C305.096 41.871 307.7 42.354 310.514 42.354Z" fill="url(#paint0_linear_2_23)"/>
<path d="M267.553 45V0.899994H270.766V45H267.553Z" fill="url(#paint1_linear_2_23)"/>
<path d="M216.54 45V0.899994H232.353C236.049 0.899994 239.22 1.48799 241.866 2.66399C244.512 3.83999 246.549 5.54099 247.977 7.76699C249.405 9.95099 250.119 12.618 250.119 15.768C250.119 18.834 249.405 21.48 247.977 23.706C246.549 25.89 244.512 27.591 241.866 28.809C239.22 29.985 236.049 30.573 232.353 30.573H218.304L219.753 29.061V45H216.54ZM247.158 45L235.692 28.998H239.346L250.812 45H247.158ZM216.54 27.738H232.353C237.099 27.738 240.69 26.688 243.126 24.588C245.604 22.488 246.843 19.548 246.843 15.768C246.843 11.946 245.604 9.006 243.126 6.94799C240.69 4.84799 237.099 3.79799 232.353 3.79799H216.54V27.738Z" fill="url(#paint2_linear_2_23)"/>
<path d="M159.079 45L179.365 0.899994H182.578L202.864 45H199.399L180.247 2.91599H181.633L162.544 45H159.079Z" fill="url(#paint3_linear_2_23)"/>
<path d="M115.438 45V0.899994H131.251C134.947 0.899994 138.118 1.48799 140.764 2.66399C143.41 3.83999 145.447 5.54099 146.875 7.76699C148.303 9.95099 149.017 12.618 149.017 15.768C149.017 18.834 148.303 21.48 146.875 23.706C145.447 25.89 143.41 27.591 140.764 28.809C138.118 29.985 134.947 30.573 131.251 30.573H117.202L118.651 29.061V45H115.438ZM146.056 45L134.59 28.998H138.244L149.71 45H146.056ZM115.438 27.738H131.251C135.997 27.738 139.588 26.688 142.024 24.588C144.502 22.488 145.741 19.548 145.741 15.768C145.741 11.946 144.502 9.006 142.024 6.94799C139.588 4.84799 135.997 3.79799 131.251 3.79799H115.438V27.738Z" fill="url(#paint4_linear_2_23)"/>
<path d="M75.6915 45.315C72.4155 45.315 69.3705 44.769 66.5565 43.677C63.7845 42.543 61.3485 40.968 59.2485 38.952C57.1905 36.894 55.5945 34.521 54.4605 31.833C53.3265 29.103 52.7595 26.142 52.7595 22.95C52.7595 19.758 53.3265 16.818 54.4605 14.13C55.5945 11.4 57.1905 9.027 59.2485 7.011C61.3485 4.953 63.7845 3.378 66.5565 2.286C69.3705 1.152 72.4155 0.584999 75.6915 0.584999C78.9675 0.584999 81.9915 1.152 84.7635 2.286C87.5775 3.378 90.0135 4.932 92.0715 6.948C94.1295 8.964 95.7255 11.337 96.8595 14.067C98.0355 16.755 98.6235 19.716 98.6235 22.95C98.6235 26.184 98.0355 29.166 96.8595 31.896C95.7255 34.584 94.1295 36.936 92.0715 38.952C90.0135 40.968 87.5775 42.543 84.7635 43.677C81.9915 44.769 78.9675 45.315 75.6915 45.315ZM75.6915 42.354C78.5055 42.354 81.1095 41.871 83.5035 40.905C85.8975 39.939 87.9765 38.574 89.7405 36.81C91.5045 35.046 92.8695 32.988 93.8355 30.636C94.8435 28.284 95.3475 25.722 95.3475 22.95C95.3475 20.136 94.8435 17.574 93.8355 15.264C92.8695 12.912 91.5045 10.854 89.7405 9.09C87.9765 7.326 85.8975 5.961 83.5035 4.995C81.1095 4.029 78.5055 3.546 75.6915 3.546C72.8775 3.546 70.2735 4.029 67.8795 4.995C65.4855 5.961 63.3855 7.326 61.5795 9.09C59.8155 10.854 58.4295 12.912 57.4215 15.264C56.4555 17.574 55.9725 20.136 55.9725 22.95C55.9725 25.722 56.4555 28.284 57.4215 30.636C58.4295 32.988 59.8155 35.046 61.5795 36.81C63.3855 38.574 65.4855 39.939 67.8795 40.905C70.2735 41.871 72.8775 42.354 75.6915 42.354Z" fill="url(#paint5_linear_2_23)"/>
<path d="M32.697 0.899994H35.91V45H32.697V0.899994ZM3.213 45H0V0.899994H3.213V45ZM33.075 24.021H2.835V21.186H33.075V24.021Z" fill="url(#paint6_linear_2_23)"/>
<path d="M6.426 79.42C5.334 79.42 4.298 79.238 3.318 78.874C2.352 78.496 1.603 78.013 1.071 77.425L1.554 76.627C2.058 77.145 2.744 77.586 3.612 77.95C4.494 78.3 5.425 78.475 6.405 78.475C7.385 78.475 8.183 78.349 8.799 78.097C9.429 77.831 9.891 77.481 10.185 77.047C10.493 76.613 10.647 76.13 10.647 75.598C10.647 74.968 10.479 74.464 10.143 74.086C9.807 73.708 9.366 73.407 8.82 73.183C8.274 72.959 7.679 72.77 7.035 72.616C6.391 72.462 5.74 72.301 5.082 72.133C4.424 71.951 3.822 71.72 3.276 71.44C2.73 71.16 2.289 70.782 1.953 70.306C1.631 69.816 1.47 69.186 1.47 68.416C1.47 67.716 1.652 67.072 2.016 66.484C2.38 65.896 2.947 65.42 3.717 65.056C4.487 64.692 5.474 64.51 6.678 64.51C7.49 64.51 8.288 64.629 9.072 64.867C9.87 65.105 10.549 65.427 11.109 65.833L10.71 66.694C10.094 66.274 9.429 65.966 8.715 65.77C8.015 65.56 7.336 65.455 6.678 65.455C5.74 65.455 4.963 65.588 4.347 65.854C3.731 66.12 3.276 66.477 2.982 66.925C2.688 67.359 2.541 67.849 2.541 68.395C2.541 69.025 2.702 69.529 3.024 69.907C3.36 70.285 3.801 70.586 4.347 70.81C4.893 71.034 5.495 71.223 6.153 71.377C6.811 71.531 7.462 71.699 8.106 71.881C8.75 72.049 9.345 72.273 9.891 72.553C10.437 72.833 10.878 73.211 11.214 73.687C11.55 74.163 11.718 74.779 11.718 75.535C11.718 76.221 11.529 76.865 11.151 77.467C10.773 78.055 10.192 78.531 9.408 78.895C8.638 79.245 7.644 79.42 6.426 79.42ZM23.9899 79.399C22.9259 79.399 21.9739 79.161 21.1339 78.685C20.3079 78.209 19.6499 77.551 19.1599 76.711C18.6839 75.871 18.4459 74.912 18.4459 73.834C18.4459 72.742 18.6839 71.776 19.1599 70.936C19.6499 70.096 20.3079 69.445 21.1339 68.983C21.9739 68.507 22.9259 68.269 23.9899 68.269C24.8719 68.269 25.6699 68.437 26.3839 68.773C27.1119 69.109 27.6999 69.613 28.1479 70.285L27.3709 70.852C26.9789 70.292 26.4889 69.879 25.9009 69.613C25.3129 69.347 24.6759 69.214 23.9899 69.214C23.1359 69.214 22.3659 69.41 21.6799 69.802C21.0079 70.18 20.4759 70.719 20.0839 71.419C19.7059 72.105 19.5169 72.91 19.5169 73.834C19.5169 74.758 19.7059 75.57 20.0839 76.27C20.4759 76.956 21.0079 77.495 21.6799 77.887C22.3659 78.265 23.1359 78.454 23.9899 78.454C24.6759 78.454 25.3129 78.321 25.9009 78.055C26.4889 77.789 26.9789 77.376 27.3709 76.816L28.1479 77.383C27.6999 78.055 27.1119 78.559 26.3839 78.895C25.6699 79.231 24.8719 79.399 23.9899 79.399ZM41.0817 68.269C41.9777 68.269 42.7547 68.444 43.4127 68.794C44.0847 69.13 44.6027 69.648 44.9667 70.348C45.3447 71.034 45.5337 71.888 45.5337 72.91V79.315H44.4837V72.994C44.4837 71.762 44.1687 70.824 43.5387 70.18C42.9227 69.536 42.0547 69.214 40.9347 69.214C40.0807 69.214 39.3387 69.389 38.7087 69.739C38.0787 70.089 37.5957 70.579 37.2597 71.209C36.9377 71.839 36.7767 72.595 36.7767 73.477V79.315H35.7267V63.733H36.7767V71.398L36.5877 71.062C36.9237 70.194 37.4767 69.515 38.2467 69.025C39.0167 68.521 39.9617 68.269 41.0817 68.269ZM58.9286 79.399C57.8226 79.399 56.8426 79.161 55.9886 78.685C55.1486 78.209 54.4836 77.551 53.9936 76.711C53.5176 75.871 53.2796 74.912 53.2796 73.834C53.2796 72.742 53.5036 71.783 53.9516 70.957C54.4136 70.117 55.0436 69.459 55.8416 68.983C56.6396 68.507 57.5356 68.269 58.5296 68.269C59.5236 68.269 60.4126 68.5 61.1966 68.962C61.9946 69.424 62.6176 70.075 63.0656 70.915C63.5276 71.741 63.7586 72.7 63.7586 73.792C63.7586 73.834 63.7516 73.883 63.7376 73.939C63.7376 73.981 63.7376 74.03 63.7376 74.086H54.0566V73.267H63.1706L62.7506 73.666C62.7646 72.812 62.5826 72.049 62.2046 71.377C61.8406 70.691 61.3436 70.159 60.7136 69.781C60.0836 69.389 59.3556 69.193 58.5296 69.193C57.7176 69.193 56.9896 69.389 56.3456 69.781C55.7156 70.159 55.2186 70.691 54.8546 71.377C54.4906 72.049 54.3086 72.819 54.3086 73.687V73.876C54.3086 74.772 54.5046 75.57 54.8966 76.27C55.3026 76.956 55.8556 77.495 56.5556 77.887C57.2556 78.265 58.0536 78.454 58.9496 78.454C59.6496 78.454 60.3006 78.328 60.9026 78.076C61.5186 77.824 62.0366 77.439 62.4566 76.921L63.0656 77.614C62.5896 78.202 61.9876 78.65 61.2596 78.958C60.5456 79.252 59.7686 79.399 58.9286 79.399ZM75.8479 79.399C74.8259 79.399 73.9019 79.168 73.0759 78.706C72.2639 78.23 71.6199 77.572 71.1439 76.732C70.6679 75.892 70.4299 74.926 70.4299 73.834C70.4299 72.728 70.6679 71.762 71.1439 70.936C71.6199 70.096 72.2639 69.445 73.0759 68.983C73.9019 68.507 74.8259 68.269 75.8479 68.269C76.8139 68.269 77.6819 68.493 78.4519 68.941C79.2359 69.389 79.8519 70.026 80.2999 70.852C80.7619 71.678 80.9929 72.672 80.9929 73.834C80.9929 74.968 80.7689 75.955 80.3209 76.795C79.8729 77.635 79.2569 78.279 78.4729 78.727C77.7029 79.175 76.8279 79.399 75.8479 79.399ZM75.9109 78.454C76.7509 78.454 77.4999 78.265 78.1579 77.887C78.8299 77.495 79.3549 76.949 79.7329 76.249C80.1249 75.549 80.3209 74.744 80.3209 73.834C80.3209 72.91 80.1249 72.105 79.7329 71.419C79.3549 70.719 78.8299 70.18 78.1579 69.802C77.4999 69.41 76.7509 69.214 75.9109 69.214C75.0709 69.214 74.3149 69.41 73.6429 69.802C72.9849 70.18 72.4599 70.719 72.0679 71.419C71.6899 72.105 71.5009 72.91 71.5009 73.834C71.5009 74.744 71.6899 75.549 72.0679 76.249C72.4599 76.949 72.9849 77.495 73.6429 77.887C74.3149 78.265 75.0709 78.454 75.9109 78.454ZM80.3419 79.315V75.724L80.5309 73.813L80.3209 71.902V63.733H81.3709V79.315H80.3419ZM94.8698 79.399C93.9318 79.399 93.1198 79.231 92.4338 78.895C91.7478 78.545 91.2158 78.027 90.8378 77.341C90.4738 76.641 90.2918 75.78 90.2918 74.758V68.353H91.3418V74.674C91.3418 75.906 91.6568 76.844 92.2868 77.488C92.9168 78.132 93.8058 78.454 94.9538 78.454C95.7798 78.454 96.4938 78.279 97.0958 77.929C97.6978 77.579 98.1598 77.089 98.4818 76.459C98.8038 75.815 98.9648 75.059 98.9648 74.191V68.353H100.015V79.315H99.0068V76.27L99.1538 76.627C98.8318 77.481 98.2928 78.16 97.5368 78.664C96.7948 79.154 95.9058 79.399 94.8698 79.399ZM109.086 79.315V63.733H110.136V79.315H109.086ZM119.181 79.315V68.353H120.231V79.315H119.181ZM119.706 65.686C119.468 65.686 119.265 65.602 119.097 65.434C118.929 65.266 118.845 65.07 118.845 64.846C118.845 64.608 118.929 64.405 119.097 64.237C119.265 64.069 119.468 63.985 119.706 63.985C119.958 63.985 120.161 64.069 120.315 64.237C120.483 64.391 120.567 64.587 120.567 64.825C120.567 65.063 120.483 65.266 120.315 65.434C120.161 65.602 119.958 65.686 119.706 65.686ZM134.632 68.269C135.528 68.269 136.305 68.444 136.963 68.794C137.635 69.13 138.153 69.648 138.517 70.348C138.895 71.034 139.084 71.888 139.084 72.91V79.315H138.034V72.994C138.034 71.762 137.719 70.824 137.089 70.18C136.473 69.536 135.605 69.214 134.485 69.214C133.631 69.214 132.889 69.389 132.259 69.739C131.629 70.089 131.146 70.579 130.81 71.209C130.488 71.839 130.327 72.595 130.327 73.477V79.315H129.277V68.353H130.285V71.398L130.138 71.062C130.474 70.194 131.027 69.515 131.797 69.025C132.567 68.521 133.512 68.269 134.632 68.269ZM152.584 83.473C151.59 83.473 150.645 83.319 149.749 83.011C148.853 82.703 148.125 82.276 147.565 81.73L148.132 80.932C148.678 81.436 149.329 81.828 150.085 82.108C150.855 82.388 151.681 82.528 152.563 82.528C154.033 82.528 155.111 82.185 155.797 81.499C156.497 80.813 156.847 79.735 156.847 78.265V75.22L157.057 73.582L156.889 71.944V68.353H157.897V78.139C157.897 79.973 157.449 81.317 156.553 82.171C155.671 83.039 154.348 83.473 152.584 83.473ZM152.29 78.916C151.254 78.916 150.323 78.692 149.497 78.244C148.685 77.782 148.034 77.152 147.544 76.354C147.068 75.542 146.83 74.618 146.83 73.582C146.83 72.532 147.068 71.608 147.544 70.81C148.034 70.012 148.685 69.389 149.497 68.941C150.323 68.493 151.254 68.269 152.29 68.269C153.284 68.269 154.173 68.486 154.957 68.92C155.755 69.34 156.385 69.949 156.847 70.747C157.309 71.531 157.54 72.476 157.54 73.582C157.54 74.674 157.309 75.619 156.847 76.417C156.385 77.215 155.755 77.831 154.957 78.265C154.173 78.699 153.284 78.916 152.29 78.916ZM152.374 77.971C153.256 77.971 154.033 77.789 154.705 77.425C155.377 77.047 155.902 76.529 156.28 75.871C156.672 75.199 156.868 74.436 156.868 73.582C156.868 72.714 156.672 71.951 156.28 71.293C155.902 70.635 155.377 70.124 154.705 69.76C154.033 69.396 153.256 69.214 152.374 69.214C151.52 69.214 150.75 69.396 150.064 69.76C149.392 70.124 148.86 70.635 148.468 71.293C148.09 71.951 147.901 72.714 147.901 73.582C147.901 74.436 148.09 75.199 148.468 75.871C148.86 76.529 149.392 77.047 150.064 77.425C150.75 77.789 151.52 77.971 152.374 77.971ZM190.625 68.269C191.507 68.269 192.27 68.444 192.914 68.794C193.572 69.13 194.083 69.648 194.447 70.348C194.811 71.034 194.993 71.888 194.993 72.91V79.315H193.943V72.994C193.943 71.762 193.642 70.824 193.04 70.18C192.438 69.536 191.598 69.214 190.52 69.214C189.694 69.214 188.98 69.389 188.378 69.739C187.776 70.089 187.314 70.579 186.992 71.209C186.67 71.839 186.509 72.595 186.509 73.477V79.315H185.459V72.994C185.459 71.762 185.158 70.824 184.556 70.18C183.954 69.536 183.114 69.214 182.036 69.214C181.21 69.214 180.496 69.389 179.894 69.739C179.292 70.089 178.83 70.579 178.508 71.209C178.186 71.839 178.025 72.595 178.025 73.477V79.315H176.975V68.353H177.983V71.377L177.836 71.041C178.158 70.187 178.697 69.515 179.453 69.025C180.209 68.521 181.119 68.269 182.183 68.269C183.275 68.269 184.192 68.549 184.934 69.109C185.69 69.655 186.166 70.474 186.362 71.566L186.005 71.419C186.299 70.481 186.852 69.725 187.664 69.151C188.476 68.563 189.463 68.269 190.625 68.269ZM210.857 79.315V76.816L210.815 76.438V72.322C210.815 71.3 210.535 70.523 209.975 69.991C209.429 69.459 208.624 69.193 207.56 69.193C206.804 69.193 206.097 69.326 205.439 69.592C204.795 69.844 204.242 70.173 203.78 70.579L203.255 69.823C203.801 69.333 204.459 68.955 205.229 68.689C205.999 68.409 206.804 68.269 207.644 68.269C209.002 68.269 210.045 68.612 210.773 69.298C211.501 69.984 211.865 71.006 211.865 72.364V79.315H210.857ZM206.909 79.399C206.097 79.399 205.39 79.273 204.788 79.021C204.2 78.755 203.745 78.384 203.423 77.908C203.115 77.432 202.961 76.886 202.961 76.27C202.961 75.71 203.087 75.206 203.339 74.758C203.605 74.296 204.039 73.925 204.641 73.645C205.243 73.351 206.048 73.204 207.056 73.204H211.088V74.023H207.077C205.943 74.023 205.145 74.233 204.683 74.653C204.235 75.073 204.011 75.598 204.011 76.228C204.011 76.928 204.277 77.488 204.809 77.908C205.341 78.328 206.09 78.538 207.056 78.538C207.98 78.538 208.757 78.328 209.387 77.908C210.031 77.488 210.507 76.879 210.815 76.081L211.109 76.795C210.815 77.593 210.311 78.23 209.597 78.706C208.897 79.168 208.001 79.399 206.909 79.399ZM225.032 79.399C224.01 79.399 223.086 79.168 222.26 78.706C221.448 78.23 220.804 77.572 220.328 76.732C219.852 75.892 219.614 74.926 219.614 73.834C219.614 72.728 219.852 71.762 220.328 70.936C220.804 70.096 221.448 69.445 222.26 68.983C223.086 68.507 224.01 68.269 225.032 68.269C225.998 68.269 226.866 68.493 227.636 68.941C228.42 69.389 229.036 70.026 229.484 70.852C229.946 71.678 230.177 72.672 230.177 73.834C230.177 74.968 229.953 75.955 229.505 76.795C229.057 77.635 228.441 78.279 227.657 78.727C226.887 79.175 226.012 79.399 225.032 79.399ZM225.095 78.454C225.935 78.454 226.684 78.265 227.342 77.887C228.014 77.495 228.539 76.949 228.917 76.249C229.309 75.549 229.505 74.744 229.505 73.834C229.505 72.91 229.309 72.105 228.917 71.419C228.539 70.719 228.014 70.18 227.342 69.802C226.684 69.41 225.935 69.214 225.095 69.214C224.255 69.214 223.499 69.41 222.827 69.802C222.169 70.18 221.644 70.719 221.252 71.419C220.874 72.105 220.685 72.91 220.685 73.834C220.685 74.744 220.874 75.549 221.252 76.249C221.644 76.949 222.169 77.495 222.827 77.887C223.499 78.265 224.255 78.454 225.095 78.454ZM229.526 79.315V75.724L229.715 73.813L229.505 71.902V63.733H230.555V79.315H229.526ZM244.054 79.399C242.948 79.399 241.968 79.161 241.114 78.685C240.274 78.209 239.609 77.551 239.119 76.711C238.643 75.871 238.405 74.912 238.405 73.834C238.405 72.742 238.629 71.783 239.077 70.957C239.539 70.117 240.169 69.459 240.967 68.983C241.765 68.507 242.661 68.269 243.655 68.269C244.649 68.269 245.538 68.5 246.322 68.962C247.12 69.424 247.743 70.075 248.191 70.915C248.653 71.741 248.884 72.7 248.884 73.792C248.884 73.834 248.877 73.883 248.863 73.939C248.863 73.981 248.863 74.03 248.863 74.086H239.182V73.267H248.296L247.876 73.666C247.89 72.812 247.708 72.049 247.33 71.377C246.966 70.691 246.469 70.159 245.839 69.781C245.209 69.389 244.481 69.193 243.655 69.193C242.843 69.193 242.115 69.389 241.471 69.781C240.841 70.159 240.344 70.691 239.98 71.377C239.616 72.049 239.434 72.819 239.434 73.687V73.876C239.434 74.772 239.63 75.57 240.022 76.27C240.428 76.956 240.981 77.495 241.681 77.887C242.381 78.265 243.179 78.454 244.075 78.454C244.775 78.454 245.426 78.328 246.028 78.076C246.644 77.824 247.162 77.439 247.582 76.921L248.191 77.614C247.715 78.202 247.113 78.65 246.385 78.958C245.671 79.252 244.894 79.399 244.054 79.399ZM271.218 79.399C270.112 79.399 269.132 79.161 268.278 78.685C267.438 78.209 266.773 77.551 266.283 76.711C265.807 75.871 265.569 74.912 265.569 73.834C265.569 72.742 265.793 71.783 266.241 70.957C266.703 70.117 267.333 69.459 268.131 68.983C268.929 68.507 269.825 68.269 270.819 68.269C271.813 68.269 272.702 68.5 273.486 68.962C274.284 69.424 274.907 70.075 275.355 70.915C275.817 71.741 276.048 72.7 276.048 73.792C276.048 73.834 276.041 73.883 276.027 73.939C276.027 73.981 276.027 74.03 276.027 74.086H266.346V73.267H275.46L275.04 73.666C275.054 72.812 274.872 72.049 274.494 71.377C274.13 70.691 273.633 70.159 273.003 69.781C272.373 69.389 271.645 69.193 270.819 69.193C270.007 69.193 269.279 69.389 268.635 69.781C268.005 70.159 267.508 70.691 267.144 71.377C266.78 72.049 266.598 72.819 266.598 73.687V73.876C266.598 74.772 266.794 75.57 267.186 76.27C267.592 76.956 268.145 77.495 268.845 77.887C269.545 78.265 270.343 78.454 271.239 78.454C271.939 78.454 272.59 78.328 273.192 78.076C273.808 77.824 274.326 77.439 274.746 76.921L275.355 77.614C274.879 78.202 274.277 78.65 273.549 78.958C272.835 79.252 272.058 79.399 271.218 79.399ZM290.518 79.315V76.816L290.476 76.438V72.322C290.476 71.3 290.196 70.523 289.636 69.991C289.09 69.459 288.285 69.193 287.221 69.193C286.465 69.193 285.758 69.326 285.1 69.592C284.456 69.844 283.903 70.173 283.441 70.579L282.916 69.823C283.462 69.333 284.12 68.955 284.89 68.689C285.66 68.409 286.465 68.269 287.305 68.269C288.663 68.269 289.706 68.612 290.434 69.298C291.162 69.984 291.526 71.006 291.526 72.364V79.315H290.518ZM286.57 79.399C285.758 79.399 285.051 79.273 284.449 79.021C283.861 78.755 283.406 78.384 283.084 77.908C282.776 77.432 282.622 76.886 282.622 76.27C282.622 75.71 282.748 75.206 283 74.758C283.266 74.296 283.7 73.925 284.302 73.645C284.904 73.351 285.709 73.204 286.717 73.204H290.749V74.023H286.738C285.604 74.023 284.806 74.233 284.344 74.653C283.896 75.073 283.672 75.598 283.672 76.228C283.672 76.928 283.938 77.488 284.47 77.908C285.002 78.328 285.751 78.538 286.717 78.538C287.641 78.538 288.418 78.328 289.048 77.908C289.692 77.488 290.168 76.879 290.476 76.081L290.77 76.795C290.476 77.593 289.972 78.23 289.258 78.706C288.558 79.168 287.662 79.399 286.57 79.399ZM303.244 79.399C302.334 79.399 301.48 79.266 300.682 79C299.898 78.734 299.289 78.398 298.855 77.992L299.338 77.152C299.758 77.516 300.318 77.831 301.018 78.097C301.718 78.349 302.474 78.475 303.286 78.475C304.434 78.475 305.26 78.286 305.764 77.908C306.268 77.53 306.52 77.033 306.52 76.417C306.52 75.969 306.387 75.619 306.121 75.367C305.869 75.101 305.526 74.898 305.092 74.758C304.658 74.618 304.182 74.506 303.664 74.422C303.146 74.324 302.628 74.219 302.11 74.107C301.592 73.995 301.116 73.834 300.682 73.624C300.248 73.414 299.898 73.127 299.632 72.763C299.38 72.385 299.254 71.888 299.254 71.272C299.254 70.712 299.408 70.208 299.716 69.76C300.024 69.312 300.486 68.955 301.102 68.689C301.718 68.409 302.488 68.269 303.412 68.269C304.098 68.269 304.784 68.367 305.47 68.563C306.17 68.759 306.737 69.018 307.171 69.34L306.688 70.18C306.226 69.83 305.708 69.578 305.134 69.424C304.56 69.27 303.979 69.193 303.391 69.193C302.327 69.193 301.543 69.389 301.039 69.781C300.549 70.173 300.304 70.663 300.304 71.251C300.304 71.713 300.43 72.084 300.682 72.364C300.948 72.63 301.298 72.84 301.732 72.994C302.166 73.134 302.642 73.253 303.16 73.351C303.678 73.435 304.196 73.533 304.714 73.645C305.232 73.757 305.708 73.918 306.142 74.128C306.576 74.324 306.919 74.604 307.171 74.968C307.437 75.318 307.57 75.794 307.57 76.396C307.57 76.998 307.402 77.523 307.066 77.971C306.744 78.419 306.261 78.769 305.617 79.021C304.973 79.273 304.182 79.399 303.244 79.399ZM314.663 83.473C314.159 83.473 313.683 83.389 313.235 83.221C312.801 83.053 312.43 82.808 312.122 82.486L312.647 81.688C312.927 81.982 313.228 82.199 313.55 82.339C313.886 82.479 314.264 82.549 314.684 82.549C315.188 82.549 315.629 82.409 316.007 82.129C316.399 81.849 316.763 81.338 317.099 80.596L317.855 78.916L318.002 78.727L322.643 68.353H323.714L318.086 80.806C317.792 81.478 317.47 82.003 317.12 82.381C316.784 82.773 316.413 83.053 316.007 83.221C315.601 83.389 315.153 83.473 314.663 83.473ZM317.834 79.588L312.752 68.353H313.865L318.485 78.664L317.834 79.588ZM329.786 79.399C329.548 79.399 329.338 79.315 329.156 79.147C328.988 78.965 328.904 78.748 328.904 78.496C328.904 78.244 328.988 78.034 329.156 77.866C329.338 77.698 329.548 77.614 329.786 77.614C330.024 77.614 330.227 77.698 330.395 77.866C330.577 78.034 330.668 78.244 330.668 78.496C330.668 78.748 330.577 78.965 330.395 79.147C330.227 79.315 330.024 79.399 329.786 79.399Z" fill="black"/>
<defs>
<linearGradient id="paint0_linear_2_23" x1="-7.68601" y1="25.4011" x2="292.373" y2="25.4011" gradientUnits="userSpaceOnUse">
<stop stop-color="#353537"/>
<stop offset="1" stop-color="#2D78FF"/>
</linearGradient>
<linearGradient id="paint1_linear_2_23" x1="-7.68602" y1="25.4011" x2="292.373" y2="25.4011" gradientUnits="userSpaceOnUse">
<stop stop-color="#353537"/>
<stop offset="1" stop-color="#2D78FF"/>
</linearGradient>
<linearGradient id="paint2_linear_2_23" x1="-7.68601" y1="25.4011" x2="292.373" y2="25.4011" gradientUnits="userSpaceOnUse">
<stop stop-color="#353537"/>
<stop offset="1" stop-color="#2D78FF"/>
</linearGradient>
<linearGradient id="paint3_linear_2_23" x1="-7.68601" y1="25.4011" x2="292.373" y2="25.4011" gradientUnits="userSpaceOnUse">
<stop stop-color="#353537"/>
<stop offset="1" stop-color="#2D78FF"/>
</linearGradient>
<linearGradient id="paint4_linear_2_23" x1="-7.686" y1="25.4011" x2="292.373" y2="25.4011" gradientUnits="userSpaceOnUse">
<stop stop-color="#353537"/>
<stop offset="1" stop-color="#2D78FF"/>
</linearGradient>
<linearGradient id="paint5_linear_2_23" x1="-7.686" y1="25.4011" x2="292.373" y2="25.4011" gradientUnits="userSpaceOnUse">
<stop stop-color="#353537"/>
<stop offset="1" stop-color="#2D78FF"/>
</linearGradient>
<linearGradient id="paint6_linear_2_23" x1="-7.686" y1="25.4011" x2="292.373" y2="25.4011" gradientUnits="userSpaceOnUse">
<stop stop-color="#353537"/>
<stop offset="1" stop-color="#2D78FF"/>
</linearGradient>
</defs>
</svg>
